<?xml version="1.0" encoding="utf-8"?>
<!-- Generator: Adobe Illustrator 15.1.0, SVG Export Plug-In  -->
<!DOCTYPE svg PUBLIC "-//W3C//DTD SVG 1.1//EN" "http://www.w3.org/Graphics/SVG/1.1/DTD/svg11.dtd" [
	<!ENTITY ns_flows "http://ns.adobe.com/Flows/1.0/">
]>
<svg version="1.1"
	 xmlns="http://www.w3.org/2000/svg" xmlns:xlink="http://www.w3.org/1999/xlink" xmlns:a="http://ns.adobe.com/AdobeSVGViewerExtensions/3.0/"
	 x="0px" y="0px" width="411px" height="209px" viewBox="0 0 411 209" enable-background="new 0 0 411 209" xml:space="preserve">
<defs>
</defs>
<polygon points="286.903,44.58 281.545,129.616 274.242,129.616 270.285,97.654 266.391,129.616 259.084,129.616 253.975,44.58 
	261.459,44.58 263.774,96.804 270.405,54.315 276.857,96.684 279.356,44.58 "/>
<polygon points="350.55,44.58 339.955,129.616 332.711,129.616 322.429,44.58 329.793,44.58 336.363,100.456 343.121,44.58 "/>
<path d="M306.367,121.169c-1.995,0-3.615,1.62-3.615,3.614c0,1.999,1.62,3.615,3.615,3.615c1.998,0,3.616-1.616,3.616-3.615
	C309.983,122.789,308.365,121.169,306.367,121.169"/>
<polygon points="310.149,44.58 302.902,44.58 292.31,129.616 299.735,129.616 306.494,73.74 313.065,129.616 320.431,129.616 "/>
<polygon points="379.448,129.616 359.661,129.616 359.661,44.58 379.448,44.58 379.448,51.821 366.969,51.821 366.969,83.535 
	377.316,83.535 377.316,90.779 366.969,90.779 366.969,122.493 379.448,122.493 "/>
<path d="M410.902,116.769c0,3.45-1.012,6.495-3.041,9.129c-2.189,2.842-4.99,4.264-8.4,4.264c-3.408,0-6.166-1.363-8.275-4.076
	c-2.113-2.72-3.166-5.826-3.166-9.316v-9.857h7.303v9.857c0,4.143,1.377,6.213,4.139,6.213c1.336,0,2.416-0.733,3.226-2.192
	c0.61-1.222,0.911-2.558,0.911-4.021v-9.369c0-4.466-1.336-8.93-4.016-13.393c-2.517-3.894-5.009-7.732-7.486-11.507
	c-2.715-4.909-4.076-10.102-4.076-15.583v-9.371c0-3.45,1.013-6.496,3.042-9.132c2.192-2.919,4.991-4.382,8.399-4.382
	c3.41,0,6.211,1.419,8.4,4.261c2.029,2.757,3.041,5.843,3.041,9.253v9.862h-7.305v-9.862c0-4.142-1.375-6.211-4.137-6.211
	c-1.42,0-2.455,0.669-3.104,2.012c-0.689,1.377-1.035,2.776-1.035,4.199v9.371c0,4.506,1.342,8.968,4.018,13.396
	c1.256,1.946,2.506,3.882,3.742,5.811c1.24,1.931,2.485,3.865,3.747,5.81c2.714,4.79,4.073,9.944,4.073,15.466V116.769z"/>
<path d="M22.891,116.224c0,3.53-1.016,6.616-3.047,9.252c-2.191,2.76-4.992,4.141-8.4,4.141H0V44.58h11.443
	c3.408,0,6.209,1.422,8.4,4.259c2.031,2.641,3.047,5.701,3.047,9.196V116.224z M15.585,116.224V58.035
	c0-4.144-1.382-6.213-4.142-6.213H7.303v70.671h4.141C14.203,122.493,15.585,120.405,15.585,116.224"/>
<polygon points="52.457,129.616 32.678,129.616 32.678,44.58 52.457,44.58 52.457,51.821 39.98,51.821 39.98,83.535 50.33,83.535 
	50.33,90.779 39.98,90.779 39.98,122.493 52.457,122.493 "/>
<path d="M83.914,116.769c0,3.45-1.016,6.495-3.047,9.129c-2.188,2.842-4.987,4.264-8.395,4.264c-3.412,0-6.17-1.363-8.281-4.076
	c-2.105-2.72-3.164-5.826-3.164-9.316v-9.857h7.305v9.857c0,4.143,1.382,6.213,4.141,6.213c1.34,0,2.412-0.733,3.225-2.192
	c0.609-1.222,0.91-2.558,0.91-4.021v-9.369c0-4.466-1.334-8.93-4.012-13.393c-2.52-3.894-5.015-7.732-7.486-11.507
	c-2.723-4.909-4.082-10.102-4.082-15.583v-9.371c0-3.45,1.015-6.496,3.041-9.132c2.197-2.919,4.992-4.382,8.404-4.382
	c3.407,0,6.207,1.419,8.395,4.261c2.031,2.757,3.047,5.843,3.047,9.253v9.862h-7.307v-9.862c0-4.142-1.379-6.211-4.135-6.211
	c-1.422,0-2.455,0.669-3.105,2.012c-0.691,1.377-1.035,2.776-1.035,4.199v9.371c0,4.506,1.339,8.968,4.018,13.396
	c1.258,1.946,2.502,3.882,3.742,5.811c1.241,1.931,2.484,3.865,3.744,5.81c2.719,4.79,4.078,9.944,4.078,15.466V116.769z"/>
<polygon points="113.424,129.616 93.64,129.616 93.64,44.58 113.424,44.58 113.424,51.821 100.947,51.821 100.947,83.535 
	111.294,83.535 111.294,90.779 100.947,90.779 100.947,122.493 113.424,122.493 "/>
<path d="M145.186,129.616h-7.304V96.988c0-4.138-1.383-6.208-4.14-6.208h-4.139v38.836h-7.308V44.58h11.446
	c3.406,0,6.207,1.422,8.397,4.259c2.032,2.719,3.046,5.785,3.046,9.196V75.2c0,5.432-1.992,9.413-5.968,11.924
	c3.976,2.516,5.968,6.52,5.968,11.997V129.616z M137.882,77.267V58.035c0-4.144-1.383-6.213-4.14-6.213h-4.139v31.714h4.139
	C136.499,83.536,137.882,81.445,137.882,77.267"/>
<polygon points="176.827,51.821 169.034,51.821 169.034,129.616 161.789,129.616 161.789,51.821 153.995,51.821 153.995,44.58 
	176.827,44.58 "/>
<g>
	<defs>
		<path id="SVGID_2_" d="M38.291,163.863c-0.002-0.001-0.004-0.002-0.005-0.002C38.287,163.861,38.289,163.862,38.291,163.863
			 M287.373,166.298c0.398-0.438,0.6-1.096,0.6-1.978c0-0.956-0.231-1.672-0.691-2.152c-0.213-0.221-0.449-0.384-0.7-0.505
			c0.265-0.381,0.522-0.764,0.771-1.14c0.363-0.558,0.705-1.111,1.039-1.664c0.074,0.215,0.164,0.431,0.271,0.646
			c0.397,0.818,0.836,1.636,1.312,2.453c0.474,0.817,0.912,1.629,1.312,2.424c0.397,0.8,0.598,1.617,0.598,2.455
			c0,1.398-0.321,2.595-0.97,3.592c-0.641,0.998-1.623,1.496-2.939,1.496c-1.012,0-1.781-0.348-2.302-1.049
			c-0.522-0.697-0.782-1.685-0.782-2.96c0-0.442,0.075-0.82,0.231-1.139c0.243,0.118,0.551,0.181,0.921,0.181
			C286.531,166.958,286.973,166.737,287.373,166.298 M60.557,169.021c-0.199-0.656-0.297-1.323-0.297-2.005
			c0-0.918,0.121-1.975,0.367-3.17c0.244-1.197,0.583-2.406,1.012-3.621c0.43-1.219,0.926-2.418,1.493-3.592
			c0.568-1.177,1.167-2.235,1.798-3.175c0.629-0.934,1.272-1.682,1.93-2.244c0.658-0.556,1.31-0.836,1.955-0.836
			c0.523,0,0.988,0.229,1.401,0.688c0.415,0.46,0.624,1.145,0.624,2.066c0,1.793-0.353,3.679-1.058,5.656
			c-0.707,1.973-1.552,3.801-2.53,5.476c-0.984,1.678-1.979,3.055-2.99,4.128c-1.016,1.078-1.841,1.619-2.486,1.619
			C61.164,170.011,60.76,169.681,60.557,169.021 M132.137,169.021c-0.199-0.656-0.296-1.323-0.296-2.005
			c0-0.918,0.12-1.975,0.366-3.17c0.243-1.197,0.583-2.406,1.012-3.621c0.43-1.219,0.928-2.418,1.494-3.592
			c0.568-1.177,1.168-2.235,1.797-3.175c0.627-0.934,1.27-1.682,1.93-2.244c0.66-0.556,1.315-0.836,1.957-0.836
			c0.521,0,0.986,0.229,1.404,0.688c0.41,0.46,0.619,1.145,0.619,2.066c0,1.793-0.355,3.679-1.059,5.656
			c-0.704,1.973-1.549,3.801-2.529,5.476c-0.982,1.678-1.979,3.055-2.991,4.128c-1.014,1.078-1.839,1.619-2.483,1.619
			C132.742,170.011,132.339,169.681,132.137,169.021 M157.645,169.142c-0.244-0.578-0.365-1.326-0.365-2.246
			c0-1.396,0.281-3.043,0.851-4.938c0.566-1.894,1.289-3.698,2.162-5.415c0.872-1.716,1.823-3.173,2.849-4.373
			c1.029-1.194,2.006-1.792,2.924-1.792c0.705,0,1.188,0.28,1.449,0.836c0.26,0.563,0.392,1.299,0.392,2.217
			c0,0.756-0.124,1.696-0.37,2.813c-0.244,1.116-0.583,2.283-1.012,3.5c-0.428,1.22-0.926,2.443-1.494,3.684
			c-0.567,1.234-1.189,2.342-1.861,3.318c-0.675,0.979-1.376,1.768-2.094,2.366c-0.723,0.599-1.449,0.899-2.184,0.899
			C158.307,170.011,157.891,169.72,157.645,169.142 M182.462,171.087c-0.321-0.559-0.481-1.297-0.481-2.215
			c0-0.956,0.131-2.074,0.396-3.354c0.256-1.275,0.616-2.592,1.078-3.947c0.458-1.359,0.993-2.705,1.61-4.04
			c0.613-1.337,1.272-2.537,1.978-3.595c0.704-1.055,1.433-1.913,2.183-2.57c0.754-0.66,1.498-0.988,2.232-0.988
			c0.584,0,1.037,0.28,1.357,0.836c0.324,0.563,0.483,1.299,0.483,2.217s-0.131,2.025-0.392,3.321
			c-0.258,1.294-0.62,2.622-1.08,3.979c-0.459,1.357-0.996,2.701-1.61,4.039c-0.612,1.339-1.272,2.535-1.979,3.594
			c-0.703,1.06-1.433,1.916-2.185,2.574c-0.75,0.656-1.494,0.986-2.229,0.986C183.238,171.925,182.788,171.646,182.462,171.087
			 M207.167,171.087c-0.321-0.559-0.483-1.297-0.483-2.215c0-0.956,0.129-2.074,0.395-3.354c0.26-1.275,0.617-2.592,1.081-3.947
			c0.457-1.359,0.994-2.705,1.608-4.04c0.612-1.337,1.271-2.537,1.979-3.595c0.702-1.055,1.434-1.913,2.182-2.57
			c0.754-0.66,1.5-0.988,2.234-0.988c0.582,0,1.034,0.28,1.355,0.836c0.321,0.563,0.485,1.299,0.485,2.217s-0.132,2.025-0.394,3.321
			c-0.26,1.294-0.619,2.622-1.08,3.979s-0.996,2.701-1.609,4.039c-0.615,1.339-1.273,2.535-1.979,3.594
			c-0.703,1.06-1.435,1.916-2.187,2.574c-0.752,0.656-1.495,0.986-2.228,0.986C207.941,171.925,207.492,171.646,207.167,171.087
			 M232.632,169.142c-0.247-0.578-0.372-1.326-0.372-2.246c0-1.396,0.283-3.043,0.855-4.938c0.564-1.894,1.285-3.698,2.158-5.415
			c0.875-1.716,1.824-3.173,2.853-4.373c1.03-1.194,2.001-1.792,2.923-1.792c0.705,0,1.188,0.28,1.447,0.836
			c0.262,0.563,0.395,1.299,0.395,2.217c0,0.756-0.125,1.696-0.369,2.813c-0.246,1.116-0.584,2.283-1.015,3.5
			c-0.43,1.22-0.925,2.443-1.493,3.684c-0.566,1.234-1.187,2.342-1.863,3.318c-0.678,0.979-1.375,1.768-2.094,2.366
			c-0.72,0.599-1.449,0.899-2.184,0.899C233.29,170.011,232.875,169.72,232.632,169.142 M272.237,158.815
			c0.491-1.313,1.065-2.604,1.726-3.859c0.661-1.259,1.379-2.335,2.165-3.233c0.781-0.898,1.509-1.345,2.183-1.345
			c0.859,0,1.289,0.555,1.289,1.674c0,0.957-0.182,1.955-0.553,2.993c-0.367,1.038-0.914,2.015-1.636,2.933
			c-0.718,0.92-1.593,1.747-2.621,2.486c-1.028,0.738-2.183,1.283-3.472,1.645C271.441,161.232,271.746,160.132,272.237,158.815
			 M266.174,139.245c-3.412,0-4.049,1.833-4.451,2.694c-1.547,3.353-2.896,6.283-4.045,8.798c-1.152,2.512-2.115,4.678-2.896,6.492
			c-0.785,1.816-1.413,3.393-1.887,4.729c-0.223,0.623-0.41,1.199-0.574,1.743c-0.684,1.019-1.42,2.044-2.211,3.076
			c-0.98,1.277-1.947,2.315-2.896,3.112c-0.951,0.797-1.688,1.197-2.209,1.197c-0.431,0-0.742-0.148-0.941-0.449
			c-0.2-0.299-0.299-0.688-0.299-1.168c0-0.439,0.067-0.945,0.205-1.525c0.137-0.576,0.416-1.407,0.83-2.482
			c0.411-1.08,1.004-2.505,1.77-4.281c0.768-1.775,1.793-4.067,3.082-6.883c1.287-2.815,2.861-6.223,4.716-10.237
			c0.69-1.495,1.437-3.101,2.228-4.815h-3.203c-3.185,0-3.912,2.379-3.912,2.379l-5.211,12.045c-0.213-1.156-0.627-2.117-1.24-2.873
			c-0.615-0.758-1.413-1.138-2.393-1.138c-1.656,0-3.337,0.44-5.037,1.317c-1.701,0.879-3.244,2.076-4.625,3.591
			c-1.18,1.295-2.16,2.793-2.97,4.468c-0.364,0.135-0.723,0.203-1.077,0.203c-0.767,0-1.402-0.242-1.91-0.72
			c-0.504-0.479-0.966-1.067-1.379-1.766c-0.414-0.7-0.828-1.468-1.242-2.306c-0.412-0.839-0.918-1.604-1.519-2.307
			c-0.596-0.695-1.327-1.283-2.185-1.762c-0.859-0.48-1.947-0.72-3.264-0.72c-1.597,0-3.215,0.338-4.855,1.017
			c-1.645,0.68-3.113,1.667-4.415,2.964c-1.304,1.296-2.369,2.862-3.196,4.697c-0.126,0.28-0.225,0.571-0.332,0.861
			c-0.137,0.021-0.273,0.04-0.406,0.04c-0.766,0-1.402-0.242-1.91-0.72c-0.508-0.479-0.965-1.067-1.379-1.766
			c-0.414-0.7-0.828-1.468-1.242-2.306c-0.414-0.839-0.918-1.604-1.518-2.307c-0.601-0.695-1.328-1.283-2.187-1.762
			c-0.857-0.48-1.946-0.72-3.265-0.72c-1.596,0-3.211,0.338-4.852,1.017c-1.643,0.68-3.116,1.667-4.423,2.964
			c-1.298,1.296-2.364,2.862-3.193,4.697c-0.784,1.739-1.182,3.681-1.225,5.81c-0.599,0.875-1.228,1.752-1.903,2.632
			c-0.982,1.277-1.947,2.315-2.9,3.112c-0.945,0.797-1.684,1.197-2.207,1.197c-0.429,0-0.746-0.148-0.939-0.449
			c-0.204-0.299-0.3-0.688-0.3-1.168c0-0.439,0.067-0.945,0.204-1.525c0.139-0.576,0.412-1.407,0.83-2.482
			c0.414-1.08,1.006-2.505,1.77-4.281c0.77-1.775,1.795-4.067,3.085-6.883c1.287-2.815,2.858-6.223,4.714-10.237
			c0.69-1.495,1.434-3.101,2.229-4.815h-3.057c-3.369,0-3.811,1.797-3.811,1.797l-5.461,12.627
			c-0.215-1.156-0.627-2.117-1.241-2.873c-0.61-0.758-1.41-1.138-2.39-1.138c-1.658,0-3.338,0.44-5.037,1.317
			c-1.702,0.879-3.243,2.076-4.624,3.591c-1.382,1.517-2.507,3.294-3.38,5.327c-0.565,1.315-0.93,2.695-1.127,4.124
			c-0.66,0.971-1.307,1.866-1.936,2.669c-1.043,1.337-2,2.406-2.875,3.203s-1.632,1.197-2.275,1.197
			c-0.707,0-1.055-0.577-1.055-1.735c0-0.718,0.157-1.594,0.479-2.636c0.321-1.035,0.735-2.151,1.239-3.352
			c0.51-1.196,1.066-2.424,1.681-3.68c0.612-1.257,1.226-2.463,1.84-3.619c0.613-1.157,1.187-2.237,1.726-3.234
			c0.537-0.996,0.974-1.814,1.312-2.453l-6.532,0.238l-1.195,3.113h-0.092c-0.186-1.16-0.592-2.125-1.219-2.905
			c-0.631-0.776-1.543-1.166-2.738-1.166c-2.058,0-3.938,0.499-5.658,1.496c-1.719,1.001-3.196,2.266-4.439,3.802
			c-1.24,1.537-2.202,3.232-2.877,5.087c-0.016,0.044-0.025,0.089-0.042,0.136c-0.369,0.166-0.737,0.254-1.103,0.254
			c-0.709,0-1.223-0.358-1.547-1.078c-0.32-0.72-0.481-1.494-0.481-2.332c0-0.681,0.1-1.38,0.298-2.098
			c0.201-0.717,0.454-1.415,0.763-2.094c0.304-0.676,0.642-1.316,1.009-1.917c0.371-0.596,0.74-1.135,1.104-1.614
			c-1.563,0.082-2.798,0.169-3.702,0.271c-0.903,0.099-1.624,0.268-2.161,0.508s-0.975,0.556-1.313,0.957
			c-0.338,0.399-0.719,0.938-1.149,1.616c-1.106,0.598-2.384,1.854-3.843,3.771c-1.452,1.914-3.025,4.45-4.713,7.602l-0.092-0.12
			l7.037-13.525l-6.623,0.238l-3.607,8.268c-0.455,0.227-0.952,0.354-1.499,0.354c-0.798,0-1.449-0.191-1.955-0.57
			c-0.507-0.38-0.931-0.787-1.265-1.228c0.121-0.598,0.207-1.177,0.253-1.735c0.045-0.56,0.067-1.018,0.067-1.377
			c0-1.514-0.269-2.672-0.803-3.471c-0.539-0.799-1.252-1.198-2.141-1.198c-0.981,0-1.733,0.448-2.254,1.345
			c-0.52,0.9-0.783,1.869-0.783,2.906c0,0.397,0.033,0.768,0.094,1.105c0.061,0.342,0.123,0.669,0.184,0.989
			c-0.277,1.556-0.742,3.253-1.403,5.087c-0.66,1.836-1.441,3.561-2.347,5.177c-0.902,1.615-1.901,2.964-2.99,4.04
			c-1.088,1.078-2.197,1.617-3.336,1.617c-1.102,0-1.7-0.738-1.795-2.215c-0.03-0.599,0.035-1.286,0.187-2.065
			c0.151-0.778,0.463-1.774,0.942-2.993c0.477-1.219,1.119-2.75,1.934-4.608c0.811-1.854,1.87-4.159,3.174-6.911
			c1.305-2.754,2.859-6.054,4.67-9.908c0.59-1.251,1.215-2.584,1.869-3.979h-3.844c-2.67,0-3.297,1.398-3.615,2.064
			c-1.518,3.168-2.831,5.924-3.935,8.261c-1.103,2.333-2.032,4.319-2.782,5.954c-0.752,1.636-1.352,3.03-1.795,4.188
			c-0.445,1.16-0.758,2.148-0.941,2.963c-0.037,0.149-0.049,0.282-0.076,0.426c-0.877,1.335-1.727,2.535-2.547,3.586
			c-1.043,1.337-2.002,2.406-2.875,3.203c-0.877,0.797-1.635,1.197-2.277,1.197c-0.705,0-1.059-0.577-1.059-1.735
			c0-0.718,0.158-1.594,0.483-2.636c0.323-1.035,0.735-2.151,1.241-3.352c0.506-1.196,1.063-2.424,1.681-3.68
			c0.612-1.257,1.224-2.463,1.839-3.619c0.612-1.157,1.189-2.237,1.725-3.234c0.537-0.996,0.974-1.814,1.311-2.453l-6.532,0.238
			l-1.194,3.113h-0.094c-0.184-1.16-0.592-2.125-1.217-2.905c-0.631-0.776-1.541-1.166-2.74-1.166c-2.053,0-3.939,0.499-5.658,1.496
			c-1.715,1.001-3.197,2.266-4.438,3.802c-1.244,1.537-2.176,3.242-2.876,5.087c-0.739,1.95-1.013,4.498-1.013,5.419
			c0,2.514,0.377,4.338,1.129,5.477c0.752,1.137,1.861,1.704,3.334,1.704c0.828,0,1.611-0.19,2.348-0.567
			c0.734-0.379,1.438-0.878,2.116-1.496c0.674-0.62,1.294-1.31,1.862-2.066c0.564-0.755,1.096-1.514,1.586-2.274l0.139,0.12
			c0,0.56,0.021,1.195,0.068,1.915c0.047,0.721,0.199,1.407,0.459,2.065c0.262,0.658,0.67,1.207,1.221,1.645
			c0.555,0.438,1.348,0.659,2.393,0.659c1.194,0,2.369-0.461,3.52-1.376c1.148-0.918,2.298-2.125,3.451-3.622
			c0.816-1.064,1.64-2.244,2.467-3.534c-0.029,0.276-0.053,0.553-0.053,0.812c0,2.435,0.568,4.329,1.699,5.686
			c1.137,1.355,2.685,2.035,4.648,2.035c1.656,0,3.291-0.359,4.898-1.076c1.61-0.721,3.101-1.729,4.467-3.024
			c1.363-1.298,2.557-2.832,3.584-4.608c1.029-1.776,1.785-3.699,2.281-5.775c0.336,0.477,0.789,0.896,1.354,1.257
			c0.565,0.36,1.187,0.539,1.863,0.539c0.446,0,0.845-0.085,1.219-0.217l-5.315,12.188l6.164-0.358
			c0.43-1.198,1.064-2.684,1.91-4.464c0.844-1.771,1.777-3.549,2.807-5.324c1.025-1.773,2.084-3.401,3.175-4.881
			c1.089-1.473,2.093-2.531,3.013-3.168v0.118c-0.245,0.681-0.368,1.618-0.368,2.813c0,0.719,0.114,1.397,0.343,2.037
			c0.232,0.638,0.553,1.195,0.969,1.676c0.414,0.476,0.929,0.868,1.539,1.166c0.613,0.3,1.289,0.448,2.025,0.448
			c1.352,0,2.506-0.228,3.475-0.689c0.168-0.081,0.322-0.162,0.482-0.245c-0.453,1.501-0.691,2.97-0.691,4.408
			c0,2.514,0.377,4.338,1.13,5.477c0.749,1.137,1.862,1.704,3.331,1.704c0.832,0,1.615-0.19,2.347-0.567
			c0.739-0.379,1.446-0.878,2.116-1.496c0.677-0.62,1.297-1.31,1.867-2.066c0.565-0.755,1.094-1.514,1.584-2.274l0.139,0.12
			c0,0.56,0.02,1.195,0.068,1.915c0.048,0.721,0.203,1.407,0.459,2.065c0.263,0.658,0.672,1.207,1.223,1.645
			c0.553,0.438,1.348,0.659,2.391,0.659c1.196,0,2.373-0.461,3.52-1.376c1.148-0.918,2.299-2.125,3.451-3.622
			c0.625-0.812,1.255-1.699,1.883-2.644c-0.039,0.467-0.069,0.936-0.069,1.416c0,1.676,0.354,3.132,1.06,4.37
			c0.707,1.236,1.779,1.855,3.222,1.855c1.901,0,3.55-0.648,4.942-1.946c1.398-1.293,2.631-2.842,3.705-4.639l0.09,0.12
			c-0.151,0.521-0.225,1.001-0.225,1.436c0,1.435,0.342,2.635,1.03,3.595c0.692,0.955,1.635,1.435,2.83,1.435
			c1.165,0,2.302-0.37,3.407-1.106c1.104-0.739,2.313-1.947,3.635-3.62c0.724-0.929,1.404-1.858,2.044-2.79
			c0.058,1.242,0.26,2.32,0.644,3.207c0.444,1.039,1.037,1.875,1.772,2.513c0.735,0.639,1.579,1.1,2.528,1.378
			c0.951,0.279,1.932,0.419,2.945,0.419c1.715,0,3.372-0.407,4.969-1.229c1.597-0.817,3.012-1.935,4.254-3.354
			c1.244-1.412,2.24-3.06,2.99-4.937c0.75-1.873,1.127-3.847,1.127-5.923h0.094c0.525,0.837,1.097,1.507,1.727,2.007
			c0.625,0.496,1.342,0.746,2.137,0.746c0.049,0,0.096-0.007,0.144-0.011c-0.427,1.409-0.647,2.928-0.647,4.56
			c0,1.517,0.221,2.792,0.666,3.83c0.444,1.039,1.034,1.875,1.77,2.513c0.736,0.639,1.58,1.1,2.529,1.378
			c0.951,0.279,1.933,0.419,2.947,0.419c1.715,0,3.371-0.407,4.969-1.229c1.59-0.817,3.01-1.935,4.254-3.354
			c1.242-1.412,2.236-3.06,2.986-4.937c0.754-1.873,1.129-3.847,1.129-5.923h0.094c0.519,0.837,1.095,1.507,1.727,2.007
			c0.626,0.496,1.339,0.746,2.137,0.746c0.233,0,0.454-0.029,0.674-0.072c-0.002,0.004-0.004,0.005-0.006,0.012
			c-0.873,2.035-1.313,4.209-1.313,6.523c0,1.676,0.354,3.132,1.056,4.37c0.707,1.236,1.781,1.855,3.222,1.855
			c1.901,0,3.549-0.648,4.947-1.946c1.395-1.293,2.629-2.842,3.701-4.639l0.091,0.12c-0.151,0.521-0.226,1.001-0.226,1.436
			c0,1.435,0.341,2.635,1.033,3.595c0.689,0.955,1.633,1.435,2.83,1.435c1.164,0,2.297-0.37,3.404-1.106
			c1.106-0.739,2.314-1.947,3.633-3.62c0.676-0.864,1.306-1.73,1.912-2.597c-0.006,0.033-0.019,0.074-0.027,0.11
			c-0.213,0.98-0.32,1.907-0.32,2.784c0,1.276,0.32,2.335,0.967,3.172c0.645,0.838,1.609,1.257,2.896,1.257
			c1.043,0,2.093-0.349,3.149-1.048c1.062-0.699,2.087-1.584,3.085-2.664c0.998-1.076,1.947-2.252,2.854-3.53
			c0.207-0.293,0.393-0.577,0.59-0.866c-0.01,0.207-0.014,0.418-0.014,0.627c0,2.435,0.549,4.287,1.654,5.566
			c1.104,1.279,2.717,1.915,4.83,1.915c2.452,0,4.676-0.68,6.672-2.035c1.264-0.86,2.558-1.983,3.871-3.358
			c0.074,0.7,0.221,1.334,0.449,1.893c0.34,0.817,0.8,1.485,1.384,2.006c0.579,0.518,1.278,0.898,2.095,1.136
			c0.81,0.239,1.676,0.359,2.597,0.359c2.483,0,5.886-1.797,5.886-1.797c0.984-0.718,1.71-1.546,2.188-2.481
			c0.476-0.938,0.713-2.086,0.713-3.442c0-1.157-0.232-2.192-0.691-3.112c-0.462-0.918-0.958-1.798-1.495-2.633
			c-0.536-0.841-1.034-1.686-1.495-2.544c-0.459-0.858-0.689-1.787-0.689-2.785c0-1.034,0.201-1.875,0.598-2.513
			c0.399-0.638,0.949-0.957,1.654-0.957c0.803,0,1.375,0.398,1.729,1.197c0.35,0.797,0.527,1.695,0.527,2.69
			c0,0.601-0.061,1.139-0.182,1.618c-0.123,0.479-0.297,0.938-0.506,1.374c0.61,0.481,1.271,0.72,1.974,0.72
			c0.799,0,1.487-0.35,2.073-1.049c0.582-0.696,0.875-1.604,0.875-2.721c0-0.511-0.072-0.976-0.205-1.406
			c5.229-3.1,12.521-5.682,21.758,0.165c9.37,13.527,23.431,10.167,36.335,16.044c9.894,4.506,23.763,5.348,33.922,2.684
			c-53.47,23.71-111.763,18.119-169.323,12.527c-45.935-4.461-91.402-8.921-133.58,1.506c42.262-7.842,85.418-1.799,127.942,4.245
			c66.914,9.511,132.267,19.021,190.12-25.578c0.475-0.354,0.947-0.715,1.415-1.095c-0.687,0.396-1.376,0.766-2.065,1.147
			c-14.171,5.807-52.582-15.041-59.785-19.384c-7.465,1.35-11.306,4.836-16.117,7.565c26.597-12.071,20.522,10.848,61.229,13.603
			c-27.699,5.659-72.556-18.283-76.87-20.48c-7.538,1.924-11.638,3.951-15.323,6.281c-0.275-0.464-0.649-0.873-1.133-1.208
			c-1.117-0.776-2.57-1.166-4.345-1.166c-1.231,0-2.317,0.2-3.271,0.601c-0.947,0.399-1.754,0.947-2.414,1.645
			c-0.657,0.697-1.155,1.486-1.494,2.362c-0.336,0.879-0.506,1.8-0.506,2.757c0,0.376,0.047,0.75,0.127,1.121
			c-0.291,0.484-0.598,0.984-0.932,1.513c-0.383,0.6-0.795,1.212-1.238,1.832c-0.129-0.022-0.256-0.037-0.395-0.037
			c-0.951,0-1.787,0.429-2.509,1.287c-0.716,0.856-1.081,2.025-1.081,3.5c0,0.026,0.002,0.05,0.002,0.08
			c-0.877,0.914-1.752,1.738-2.619,2.462c-1.654,1.378-3.21,2.065-4.65,2.065c-0.705,0-1.295-0.159-1.768-0.478
			c-0.477-0.319-0.863-0.738-1.152-1.257c-0.295-0.519-0.5-1.125-0.625-1.825c-0.119-0.697-0.183-1.407-0.183-2.125
			c0-0.397,0.017-0.797,0.05-1.197c0.027-0.397,0.074-0.799,0.133-1.198c0.832-0.239,1.967-0.587,3.409-1.046
			c1.441-0.457,2.874-1.058,4.3-1.797c1.428-0.739,2.66-1.625,3.701-2.665c1.041-1.034,1.566-2.254,1.566-3.65
			c0-1.397-0.475-2.401-1.426-3.021c-0.95-0.619-2.162-0.929-3.637-0.929c-1.471,0-3.025,0.42-4.668,1.256
			c-1.64,0.841-3.156,1.958-4.554,3.352c-1.397,1.397-2.553,3.035-3.474,4.911c-0.659,1.344-1.078,2.749-1.262,4.219
			c-0.562,0.814-1.131,1.604-1.703,2.362c-1.149,1.519-2.266,2.784-3.338,3.803s-1.961,1.526-2.67,1.526
			c-0.244,0-0.467-0.117-0.666-0.359c-0.199-0.24-0.298-0.575-0.298-1.018c0-1.076,0.329-2.524,0.988-4.338
			c0.657-1.818,1.687-4.271,3.082-7.363c1.397-3.091,3.182-6.934,5.358-11.523c1.037-2.182,2.176-4.599,3.416-7.24H266.174z
			 M58.38,181.801c15.771-5.396,30.351-2.987,27.526,3.087c-1.501,3.233-4.744,4.43-8.506,4.431
			C69.962,189.318,60.486,184.644,58.38,181.801 M30.137,169.633c-2.279-1.596-0.025-4.923,1.207-5.604
			c1.195-0.666,4.238-1.438,7.748,0.764l-0.336,0.533c-0.939,1.486-1.746,2.613-2.469,3.439c-0.301,0.348-0.584,0.65-0.854,0.91
			c-0.76,0.325-1.746,0.458-2.674,0.458C31.616,170.133,30.563,169.93,30.137,169.633 M55.21,138.164
			c-2.726,1.895-5.187,4.964-7.315,9.119l-5.815,12.007c-0.838,1.684-1.636,3.174-2.366,4.449l-0.324,0.561l-0.601-0.243
			c-0.177-0.071-0.354-0.133-0.528-0.199c0.01,0.002,0.016,0.001,0.026,0.004c-0.153-0.059-0.306-0.112-0.456-0.166
			c-0.027-0.012-0.055-0.021-0.078-0.028l0.001,0.002c-3.12-1.075-5.685-1.078-6.396-1.078c-0.409,0-0.801,0.021-1.16,0.058
			c-1.164,0.117-2.139,0.369-2.899,0.75c-0.733,0.366-1.301,0.816-1.682,1.338c-0.392,0.531-0.654,1.1-0.776,1.688
			c-0.119,0.574-0.098,1.096,0.063,1.596c0.152,0.475,0.482,0.905,0.978,1.285c0.537,0.41,1.317,0.732,2.321,0.962
			c0.574,0.132,3.527,0.41,6.507,0.031c-0.003,0.003-0.008,0.006-0.011,0.009c0.048-0.009,0.09-0.016,0.139-0.023
			c0.738-0.101,1.477-0.238,2.184-0.435c-0.015,0.003-0.019,0-0.029,0.003c0.063-0.017,0.131-0.026,0.193-0.045
			c1.342-0.354,2.65-0.905,3.89-1.645l0.299-0.179c5.396,3.023,10.104,11.168,10.575,11.728c-3.424,1.143-7.936,2.845-11.23,4.079
			c-9.626,3.601-18.719,7.001-27.406,7.001c-4.888,0-9.242-1.081-13.311-3.306c0,0,10.346,7.028,16.876,7.028
			c9.741,0,23.772-7.366,21.011-2.906c-2.115,3.426,1.486-0.094,5.978-3.612c3.819-2.993,8.282-5.987,10.413-4.707
			c5.627,6.861,16.186,14.745,31.316,8.223c3.596-1.547,8.809-9.239-0.73-14.207c-2.579-1.341-5.869-1.923-9.979-1.923
			c-5.543,0-11.216,0.756-19.076,3.104c-0.832-0.929-5.608-7.366-11.567-11.428c-0.019-0.02-0.035-0.043-0.063-0.06l-0.791-0.505
			l0.668-0.653c0.471-0.461,0.854-0.872,1.209-1.285c1.186-1.401,2.33-3.172,3.389-5.266l5.82-12.014
			c1.207-2.388,2.307-4.396,3.269-5.991c0.993-1.634,1.848-2.885,2.614-3.823c0.771-0.938,1.428-1.599,2.011-2.011
			C59.752,135.759,57.352,136.667,55.21,138.164 M65.596,136.962c-2.255,6.779-7.896,13.087-10.996,16.19
			c2.422-0.712,6.201-2.814,8.791-6.291c0.104-0.14,0.256-0.332,0.444-0.567c1.437-1.793,5.655-9.302,1.604-10.957
			C65.744,135.767,65.799,136.345,65.596,136.962"/>
	</defs>
	<clipPath id="SVGID_3_">
		<use xlink:href="#SVGID_2_"  overflow="visible"/>
	</clipPath>
	
		<linearGradient id="SVGID_4_" gradientUnits="userSpaceOnUse" x1="-1056.1333" y1="505.5479" x2="-1055.1333" y2="505.5479" gradientTransform="matrix(410.1572 0 0 -410.1572 433180.4375 207526.4219)">
		<stop  offset="0" style="stop-color:#553229"/>
		<stop  offset="0.1875" style="stop-color:#573229"/>
		<stop  offset="0.3099" style="stop-color:#5E3429"/>
		<stop  offset="0.4137" style="stop-color:#6A3528"/>
		<stop  offset="0.507" style="stop-color:#7B3425"/>
		<stop  offset="0.5934" style="stop-color:#932F1F"/>
		<stop  offset="0.6735" style="stop-color:#B31B1A"/>
		<stop  offset="0.6867" style="stop-color:#BA131A"/>
		<stop  offset="0.7465" style="stop-color:#C22E1B"/>
		<stop  offset="0.8668" style="stop-color:#D85D1D"/>
		<stop  offset="0.9674" style="stop-color:#ED841E"/>
		<stop  offset="1" style="stop-color:#F7931E"/>
	</linearGradient>
	<rect y="135.337" clip-path="url(#SVGID_3_)" fill="url(#SVGID_4_)" width="410.157" height="73.656"/>
</g>
<g>
	<defs>
		<path id="SVGID_1_" d="M179.02,127.649c1.469,1.455,6.92,0.48,11.381-0.306c0.051-0.11,0.105-0.223,0.156-0.336
			c0.69-1.693,0.767-3.444-1.281-5.708c-0.797-0.881-1.926-2.082-2.071-3.379C180.264,121.094,175.49,124.154,179.02,127.649
			 M238.161,121.3c-2.046,2.264-1.968,4.015-1.28,5.708c0.051,0.113,0.104,0.226,0.157,0.336c4.457,0.786,9.91,1.761,11.377,0.306
			c3.533-3.495-1.242-6.556-8.183-9.729C240.087,119.218,238.957,120.419,238.161,121.3 M186.93,108.06
			c0-0.61,0.494-1.102,1.104-1.102s1.104,0.491,1.104,1.102c0,0.608-0.494,1.103-1.104,1.103S186.93,108.668,186.93,108.06
			 M187.452,116.47c0.233-0.674,0.489-1.318,0.771-1.946c0.348-0.81,0.731-1.598,1.172-2.414c0.242-0.454,0.451-0.877,0.638-1.288
			c1.297-3.072,0.88-5.123-1.437-8.708c-0.638-0.991-1.166-1.944-1.164-2.995C179.794,106.183,185.063,113.478,187.452,116.47
			 M238.299,108.06c0-0.61,0.497-1.102,1.105-1.102c0.607,0,1.103,0.491,1.103,1.102c0,0.608-0.495,1.103-1.103,1.103
			C238.796,109.162,238.299,108.668,238.299,108.06 M238.842,102.113c-2.316,3.585-2.734,5.636-1.438,8.708
			c0.189,0.411,0.395,0.834,0.64,1.288c0.437,0.816,0.822,1.604,1.168,2.414c0.283,0.628,0.537,1.272,0.771,1.946
			c2.391-2.992,7.66-10.287,0.024-17.352C240.008,100.169,239.477,101.122,238.842,102.113 M186.93,88.687
			c0-0.609,0.494-1.106,1.104-1.106s1.104,0.497,1.104,1.106c0,0.607-0.494,1.101-1.104,1.101S186.93,89.294,186.93,88.687
			 M184.298,81.14c-0.963,7.615,1.945,13.064,3.753,15.935c0.801-1.578,1.672-2.928,2.293-4.289
			c0.773-1.852,1.031-3.759-0.061-6.312c-1.385-3.248-3.51-6.35-5.061-9.617L184.298,81.14z M238.299,88.687
			c0-0.609,0.497-1.106,1.105-1.106c0.607,0,1.103,0.497,1.103,1.106c0,0.607-0.495,1.101-1.103,1.101
			C238.796,89.788,238.299,89.294,238.299,88.687 M237.152,86.474c-1.086,2.553-0.834,4.46-0.059,6.312
			c0.619,1.361,1.489,2.711,2.293,4.289c1.81-2.871,4.717-8.32,3.752-15.935l-0.923-4.283
			C240.664,80.124,238.542,83.226,237.152,86.474 M209.252,123.251c0-0.866,0.703-1.572,1.57-1.572c0.869,0,1.574,0.706,1.574,1.572
			c0,0.869-0.705,1.574-1.574,1.574C209.955,124.825,209.252,124.12,209.252,123.251 M215.094,114.206
			c0-0.868,0.702-1.571,1.572-1.571c0.866,0,1.572,0.703,1.572,1.571s-0.706,1.574-1.572,1.574
			C215.796,115.78,215.094,115.074,215.094,114.206 M209.252,105.74c0-0.869,0.703-1.573,1.57-1.573
			c0.869,0,1.574,0.704,1.574,1.573s-0.705,1.57-1.574,1.57C209.955,107.311,209.252,106.609,209.252,105.74 M215.094,97.606
			c0-0.869,0.702-1.572,1.572-1.572c0.866,0,1.572,0.703,1.572,1.572c0,0.868-0.706,1.573-1.572,1.573
			C215.796,99.179,215.094,98.474,215.094,97.606 M209.252,88.813c0-0.868,0.703-1.572,1.57-1.572c0.869,0,1.574,0.704,1.574,1.572
			c0,0.872-0.705,1.572-1.574,1.572C209.955,90.385,209.252,89.685,209.252,88.813 M210.686,62.452
			c-0.928-0.929-1.5-2.209-1.5-3.623c0-2.83,2.293-5.118,5.119-5.118s5.12,2.288,5.12,5.118c0,2.828-2.294,5.121-5.12,5.121
			C212.893,63.95,211.612,63.378,210.686,62.452 M232.471,20.862c1.32,0.764,2.45,1.675,2.829,2.678
			c0.415,1.108,0.188,2.248-0.231,3.422C234.462,24.843,233.51,22.757,232.471,20.862 M203.189,17.621
			c0-1.133,0.918-2.051,2.052-2.051c1.132,0,2.052,0.918,2.052,2.051c0,1.131-0.92,2.052-2.052,2.052
			C204.107,19.673,203.189,18.752,203.189,17.621 M226.63,12.512c0.052,0.002,0.107,0.005,0.16,0.006v0.164
			C226.746,12.628,226.691,12.57,226.63,12.512 M193.5,11.796c-0.466-0.444-0.59-1.3,0.512-2.103
			c0.752-0.545,2.152-0.671,2.969-0.174l-0.108,0.156c-0.422,0.604-0.767,1.283-1.028,2.026l-0.115,0.315l-0.01,0.007
			c0.113-0.666-0.27-1.456-1.519-1.94c1.327,0.966,0.917,2.099,0.127,2.099C194.075,12.182,193.785,12.068,193.5,11.796
			 M212.727,4.956l0.248-0.051c-0.183,0.087-0.244,0.153-0.244,0.153S212.729,5.021,212.727,4.956 M213.301,1.985
			c0.961-1.226,1.854-0.397,2.207,0.247c0.889,1.627-1.203,2.565-2.091,0.267c0.104,0.948,0.44,1.557,0.864,1.899
			C213.486,4.131,212.16,3.439,213.301,1.985 M204.632,1.14c-0.399,0.734-0.502,2.085-0.028,3.188
			c-4.097,3.599-8.967,2.23-11.205,4.245c-1.452,1.309-1.486,2.912-0.631,3.854c0.403,0.442,0.826,0.671,1.221,0.746
			c-0.6,0.458-1.09,0.913-1.487,1.387l-0.08,0.096c-0.258,0.304-0.608,0.721-0.583,0.961c0.037,0.291,0.137,0.519,0.314,0.713
			l0.146,0.16l-0.197,0.593c-0.155,0.574,0.326,0.881,0.435,0.977c0.005-0.021,0.002-0.042,0.006-0.065
			c0.142-0.895,0.981-1.508,1.88-1.368c0.784,0.123,1.354,0.783,1.387,1.547l-2.463,1.498c-0.291-0.17-0.979-0.824-0.808-1.495
			c-0.767,0.968-0.54,1.649-0.142,1.927c-1.274,0.446-2.713,0.814-3.004-0.965c0.07,1.384,0.467,2.069,0.951,2.377
			c-0.104,0.064-0.189,0.119-0.256,0.164c-1.316,0.45-2.546,0.427-2.785-1.044c0.053,1.016,0.28,1.649,0.588,2.039
			c-1.73,0.052-2.877,0.257-4.397,1.628c-1.452,1.31-1.487,2.911-0.632,3.853c2.078,2.288,4.691-1.082,1.433-2.343
			c1.748,1.273,0.479,2.837-0.698,1.714c-0.468-0.445-0.593-1.302,0.512-2.104c0.625-0.457,1.713-0.619,2.527-0.368
			c0.467,0.284,0.817,0.634,1.047,1.031c0.01,0.039,0.021,0.075,0.027,0.117c0.01,0,0.021-0.002,0.032,0
			c0.646,1.252,0.192,2.88-1.129,4.005c-0.181,0.595-0.138,1.336,0.131,2.087c0.106,0.304,0.226,0.588,0.349,0.86
			c0.01,0.045,0.028,0.085,0.037,0.132c0.014,0.012,0.026,0.023,0.04,0.035c0.233,0.499,0.487,0.942,0.767,1.316
			c0.574,0.767,1.121,1.254,1.722,1.528c0.959,1.477,1.284,2.978-0.452,3.761c2.493-0.806,2.915-1.974,2.727-2.926
			c0.185,0.064,0.377,0.132,0.573,0.201c1.08,1.67,1.441,3.367-0.522,4.252c2.854-0.923,3.314-2.261,3.09-3.347
			c0.027,0.009,0.057,0.021,0.085,0.032c1.299,1.862,1.856,3.814-0.339,4.804c3.047-0.984,3.771-2.36,3.764-3.457l0.93,0.592
			l-0.716,3.341l14.019,6.392c0.475,0.212,0.692,0.796,0.494,1.306c-0.174,0.453-0.621,0.672-1.049,0.569
			c-3.113,0.668-5.472,3.629-5.472,7.205c0,3.711,2.542,6.775,5.84,7.281v0.017h0.001c0.512,0,0.924,0.447,0.924,0.998v3.934v2.022
			c0,0.551-0.416,0.998-0.925,0.998s-0.923-0.447-0.923-0.998V69.21h0.001v-1.401c-3.763-0.925-6.573-4.561-6.573-8.917
			c0-3.634,1.954-6.758,4.783-8.236l-11.751-5.354c-0.071,0.124-0.153,0.267-0.245,0.428c-0.001-0.001-0.001-0.004-0.005-0.004
			c-0.004,0.012-0.011,0.026-0.017,0.04c-0.317,0.561-0.746,1.312-1.254,2.206c-2.143,3.138-6.092,7.43-8.85,12.203
			c2.41-0.878,5.45-0.585,8.381,2.164c-5.355-3.245-9.65-0.172-10.953,3.838c-0.252,0.969-0.41,1.941-0.463,2.917
			c-0.095,3.141,1.096,5.624,3.911,11.222c-0.003,0.001-0.007,0.005-0.01,0.01c0.192,0.337,0.39,0.675,0.582,1.014
			c0.022,0.032,0.041,0.068,0.06,0.102c0.188,0.323,0.369,0.643,0.551,0.968c0.231,0.418,0.459,0.839,0.679,1.262
			c0.067,0.128,0.129,0.254,0.192,0.384c0.176,0.349,0.347,0.699,0.512,1.055c0.064,0.138,0.127,0.279,0.189,0.419
			c0.207,0.474,0.406,0.949,0.577,1.434c0.832,2.337,0.812,4.205-0.151,6.527c-0.453,1.093-1.205,2.088-1.856,3.069
			c-1.578,2.375,0.128,4.95,1.503,7c1.225,1.829,1.458,3.122,1.025,5.283c-0.299,1.486-1.363,3.045-2.074,4.326
			c-1.84,3.33-0.678,6.415,1.445,9.079c1.123,1.4,1.026,2.837,0.537,4.444c-0.986,3.231-3.009,5.152-2.996,7.925
			c-0.076,0.296-0.119,0.597-0.119,0.903c0,1.894,1.5,3.6,3.902,4.808c0.004-0.008,0.008-0.017,0.01-0.022
			c0.406,0.215,0.854,0.413,1.33,0.597l1.685-4.928v5.474l0.032,0.009c0.455,0.119,0.933,0.222,1.425,0.311
			c0.116,0.021,0.233,0.039,0.351,0.06c0.432,0.07,0.875,0.133,1.33,0.18c0.081,0.008,0.159,0.018,0.24,0.025
			c0.496,0.046,1.007,0.07,1.523,0.087c0.056,0.001,0.107,0.008,0.162,0.009c0.002-0.002,0.002-0.004,0.002-0.006
			c0.188,0.005,0.373,0.014,0.563,0.014c0.271,0,0.529-0.017,0.796-0.024l1.07-6.761l1.043,6.604
			c3.147-0.384,5.771-1.366,7.248-2.675v-4.918l-0.011-0.01l0.014-2.783v-2.872c0-0.192,0.042-0.369,0.1-0.532
			c0.604-2.949,3.991-2.986,4.408-4.757c0.789-3.358-2.059-3.243-3.911-4.841c-3.087-2.662-1.909-7.145,1.347-8.947
			c3.088-1.71,4.105-6.18,0.201-7.586c-1.162-0.418-2.391-0.951-2.888-2.181c-0.638-1.588-0.666-3.859,0.497-5.243
			c1.123-1.345,3.115-1.582,4.171-2.904c2.38-2.983,0.324-5.367-1.847-7.712c-3.782,0.042-7.588-1.604-9.516-4.952
			c-0.507-0.884,0.856-1.677,1.364-0.794c3.235,5.624,12.89,5.57,16.09-0.063c0.501-0.885,1.865-0.091,1.362,0.796
			c-1.504,2.645-4.18,4.242-7.1,4.795c0.226,0.25,0.429,0.502,0.588,0.758c1.065,1.688,1.808,3.763,1.42,5.791
			c-0.309,1.614-1.098,2.841-2.579,3.621c-0.772,0.41-1.858,0.768-2.435,1.458c-1.209,1.445-1.103,4.13,0.864,4.841
			c3.601,1.298,5.063,3.869,3.804,7.768c-0.481,1.496-1.863,2.338-3.147,3.063c-3.04,1.718-2.963,5.46,0.231,6.971
			c2.836,1.344,4.659,4.336,2.353,7.25c-1.196,1.511-3.411,1.644-3.411,4.662v1.611l0.135,7.355
			c1.874,1.586,4.932,2.731,8.514,3.096l1.055-6.67l1.07,6.77c0.235,0.006,0.47,0.016,0.709,0.016c2.086,0,4.033-0.268,5.713-0.727
			v-5.435l1.67,4.883c1.089-0.437,2.008-0.96,2.684-1.556c1.547-1.133,2.473-2.521,2.473-4.027c0-0.141-0.012-0.28-0.028-0.417
			c0.134-2.902-1.97-4.843-2.987-8.165c-0.492-1.607-0.581-3.044,0.537-4.444c2.124-2.664,3.287-5.749,1.448-9.079
			c-0.712-1.281-1.778-2.84-2.075-4.326c-0.432-2.161-0.199-3.454,1.025-5.283c1.373-2.05,3.08-4.625,1.502-7
			c-0.654-0.981-1.404-1.976-1.858-3.069c-0.961-2.322-0.979-4.19-0.149-6.527c0.174-0.485,0.371-0.96,0.578-1.434
			c0.061-0.14,0.125-0.281,0.19-0.419c0.162-0.356,0.331-0.706,0.51-1.055c0.065-0.13,0.127-0.256,0.192-0.384
			c0.218-0.423,0.447-0.844,0.681-1.262c0.181-0.325,0.363-0.645,0.548-0.968c0.018-0.034,0.039-0.07,0.059-0.102
			c0.197-0.343,0.394-0.685,0.592-1.026c2.658-5.291,3.867-7.799,3.913-10.709c-0.003-0.003-0.003-0.006-0.003-0.008
			c-0.018-1.242-0.223-2.481-0.561-3.707c-1.412-3.868-5.629-6.717-10.857-3.551c2.918-2.74,5.949-3.041,8.354-2.175
			c-2.743-4.742-6.657-9.007-8.808-12.138c-0.533-0.937-0.979-1.722-1.309-2.3l-10.817,4.93c2.825,1.478,4.78,4.602,4.78,8.236
			c0,4.356-2.81,7.992-6.572,8.917v1.401v3.934c0,0.551-0.413,0.998-0.924,0.998c-0.508,0-0.92-0.447-0.92-0.998l-0.002-2.022
			v-3.934c0-0.551,0.412-0.998,0.922-0.998v-0.017c3.301-0.506,5.84-3.57,5.84-7.281c0-3.576-2.354-6.537-5.473-7.205
			c-0.425,0.103-0.871-0.116-1.049-0.569c-0.195-0.51,0.023-1.094,0.494-1.306l13.146-5.99c0.074-1.268,0.287-2.336,0.635-3.202
			c-3.489,0.578-7.488-0.699-9.749-5.064c-1.685-3.25-0.629-6.814,0.514-9.608c0.624-1.527,1.367-3.037,1.871-4.612
			c0.745-2.33,0.56-3.905-0.478-5.776c-0.312-0.501-1.696-2.617-2.791-2.681c-1.297-0.073-1.715,0.636-1.639,1.241
			c0.194,1.532,2.064,1.145,1.543-0.84c1.639,2.879-2.304,3.793-2.461,0.864c-0.063-1.208,0.918-2.463,2.779-2.453
			c2.477,0.009,3.848,3.124,3.848,3.124l-0.004,0.003c1.623,2.949,1.352,5.312-0.082,8.737c-1.228,2.93-3.685,5.752-1.517,11.037
			c1.978,4.813,10.726,5.869,11.987,0.826c1.164-4.671-4.543-4.151-4.791-1.882c0.311-0.231,0.693-0.373,1.11-0.373
			c1.032,0,1.868,0.835,1.868,1.867c0,1.033-0.836,1.865-1.868,1.865c-0.536,0-1.018-0.227-1.36-0.591
			c-0.031-0.025-0.067-0.037-0.098-0.072c-2.605-2.825-0.533-6.44,3.299-5.919c2.551,0.348,3.649,2.836,3.412,5.221
			c0.014-0.036,0.032-0.072,0.049-0.109c1.84,1.305,4.877,1.541,5.299-1.239c0.349-2.299-0.758-3.353-2.496-3.818
			c1.861,1.444-0.115,4.031-1.58,1.884c-1.467-2.146,2.999-5.509,1.053-9.622c-2.138-4.519-9.8-9.676-10.453-10.11
			c2.768,0.096,6.385,1.014,6.747,5.101c0.929-5.552-3.833-7.459-7.218-8.115c1.334-1.062,1.695-3.029-0.368-4.969
			c0.953,1.921-1.127,2.46-3.698,2.2c-1.584-1.047-3.596-2.103-5.412-2.2c-0.291-0.015-0.562-0.022-0.816-0.028
			c0.773-0.465,1.201-1.574,0.345-2.899c-0.788-1.222-2.524-1.595-4.431-0.437c-0.743,0.455-1.33,1.24-1.773,2.028
			c0,0-0.74,0.261-1.583,0.359c-0.067-0.018-0.127-0.023-0.192-0.023c-0.099,0.005-0.188,0.026-0.273,0.055
			c-0.404,0.014-0.809-0.027-1.145-0.165c-1.242-0.503-1.317-1.35-0.977-1.881c0.857-1.342,2.432-0.15,1.063,1.469
			c1.947-1.357,0.697-3.015-0.733-3.014C205.742,0.001,205.074,0.324,204.632,1.14"/>
	</defs>
	<clipPath id="SVGID_5_">
		<use xlink:href="#SVGID_1_"  overflow="visible"/>
	</clipPath>
	
		<radialGradient id="SVGID_6_" cx="-1040.7207" cy="505.6328" r="0.9997" gradientTransform="matrix(56.2971 0 0 -79.045 58803.9648 40026.6992)" gradientUnits="userSpaceOnUse">
		<stop  offset="0" style="stop-color:#F7931E"/>
		<stop  offset="0.1319" style="stop-color:#C55B22"/>
		<stop  offset="0.2533" style="stop-color:#A52F20"/>
		<stop  offset="0.3133" style="stop-color:#9A1B1E"/>
		<stop  offset="0.325" style="stop-color:#971C1E"/>
		<stop  offset="0.4691" style="stop-color:#7A281E"/>
		<stop  offset="0.6112" style="stop-color:#652A1E"/>
		<stop  offset="0.7492" style="stop-color:#56281D"/>
		<stop  offset="0.881" style="stop-color:#4D271D"/>
		<stop  offset="1" style="stop-color:#4A261C"/>
	</radialGradient>
	<rect x="175.49" clip-path="url(#SVGID_5_)" fill="url(#SVGID_6_)" width="76.458" height="142.136"/>
</g>
</svg>
