<!DOCTYPE svg PUBLIC "-//W3C//DTD SVG 1.1//EN" "http://www.w3.org/Graphics/SVG/1.1/DTD/svg11.dtd" [
	<!ENTITY ns_flows "http://ns.adobe.com/Flows/1.0/">
]><svg xmlns="http://www.w3.org/2000/svg" width="64" height="64" viewBox="2.88 3.88 64 64" enable-background="new 2.88 3.88 64 64"><path fill="#fff" d="M65.962 29.948c-1.371-1.948-13.693-19.048-31.079-19.048-17.386 0-29.706 17.1-31.079 19.048-2.133 3.024-2.133 7.058 0 10.083 1.373 1.949 13.693 18.829 31.079 18.829 17.386 0 29.708-16.88 31.079-18.828 2.133-3.026 2.133-7.06 0-10.084zm-31.079 18.621c-7.272 0-13.604-6.323-13.604-13.579 0-7.258 6.323-13.579 13.595-13.579.75 0 2.185.077 2.185.197v11.092h11.232c.119 0 .307 1.605.307 2.354.001 7.256-6.441 13.515-13.715 13.515z"/></svg>